<?xml version="1.0" standalone="no"?>
<!DOCTYPE svg PUBLIC "-//W3C//DTD SVG 20010904//EN"
 "http://www.w3.org/TR/2001/REC-SVG-20010904/DTD/svg10.dtd">
<svg version="1.0" xmlns="http://www.w3.org/2000/svg"
 width="128.000000pt" height="128.000000pt" viewBox="0 0 128.000000 128.000000"
 preserveAspectRatio="xMidYMid meet">

<g transform="translate(0.000000,128.000000) scale(0.100000,-0.100000)"
fill="#000000" stroke="none">
<path d="M0 640 l0 -640 640 0 640 0 0 640 0 640 -640 0 -640 0 0 -640z m460
275 l0 -35 -100 0 c-116 0 -140 -13 -140 -75 l0 -35 120 0 120 0 0 -200 0
-200 -30 0 -30 0 0 165 0 165 -90 0 -90 0 0 -165 0 -165 -35 0 -35 0 0 165 0
165 -35 0 c-33 0 -35 2 -35 35 0 33 2 35 34 35 32 0 33 1 39 50 12 103 52 127
220 129 l87 1 0 -35z m401 -135 l69 0 0 -36 c0 -34 -2 -36 -27 -31 -16 3 -36
9 -46 13 -16 6 -16 3 4 -35 17 -33 20 -54 17 -97 -8 -94 -59 -141 -169 -158
-50 -8 -75 -17 -83 -29 -17 -27 8 -37 92 -37 118 0 170 -33 179 -115 l6 -45
-37 0 c-33 0 -36 2 -36 29 0 50 -38 71 -131 71 -92 0 -126 11 -139 45 -14 36
3 71 40 83 l31 11 -35 36 c-32 31 -56 86 -56 125 0 34 22 91 47 121 39 46 77
60 147 54 32 -3 90 -5 127 -5z m339 -24 c0 -30 -4 -35 -29 -41 -29 -6 -70 -44
-90 -82 -6 -12 -11 -73 -11 -142 l0 -121 -30 0 -30 0 0 205 0 205 30 0 c29 0
30 -1 30 -47 l0 -48 19 30 c28 46 63 72 99 74 7 1 12 -12 12 -33z"/>
<path d="M663 710 c-39 -24 -53 -48 -53 -95 0 -68 41 -114 101 -115 117 0 143
179 32 221 -34 13 -44 11 -80 -11z"/>
</g>
</svg>
